<?xml version="1.0" standalone="no"?>
<!DOCTYPE svg PUBLIC "-//W3C//DTD SVG 20010904//EN"
 "http://www.w3.org/TR/2001/REC-SVG-20010904/DTD/svg10.dtd">
<svg version="1.0" xmlns="http://www.w3.org/2000/svg"
 width="750.000000pt" height="750.000000pt" viewBox="0 0 750.000000 750.000000"
 preserveAspectRatio="xMidYMid meet">
<metadata>
Created by potrace 1.11, written by Peter Selinger 2001-2013
</metadata>
<g transform="translate(0.000000,750.000000) scale(0.100000,-0.100000)"
fill="#000000" stroke="none">
<path d="M5264 7475 c-42 -39 -183 -167 -208 -188 -12 -10 -34 -30 -51 -45
-16 -15 -64 -56 -105 -92 -41 -35 -77 -67 -80 -70 -3 -3 -48 -41 -100 -85 -52
-44 -97 -82 -100 -85 -3 -3 -72 -62 -155 -130 -82 -69 -159 -132 -170 -141
-67 -56 -317 -258 -414 -334 -132 -104 -483 -378 -531 -415 -18 -14 -38 -30
-44 -35 -6 -6 -30 -24 -52 -40 -23 -17 -179 -133 -347 -260 -168 -126 -316
-238 -328 -247 -13 -9 -53 -38 -89 -65 -36 -26 -106 -77 -155 -112 -152 -110
-361 -289 -524 -451 -299 -297 -432 -567 -434 -880 -1 -296 104 -595 271 -766
79 -81 208 -168 297 -202 125 -45 160 -56 235 -67 79 -12 338 -13 400 -1 14 2
47 7 74 11 27 3 52 8 55 9 3 2 28 7 55 10 27 4 52 9 55 11 3 1 23 6 43 9 21 3
59 11 85 17 27 6 53 12 58 13 6 1 37 8 70 15 33 7 74 16 90 21 17 5 41 11 55
14 14 3 99 23 190 46 91 22 176 43 189 46 14 3 28 7 31 9 4 2 22 7 41 10 19 4
39 8 44 9 6 1 16 5 23 9 6 5 12 6 12 3 0 -2 15 0 33 5 85 26 85 23 2 -58 -236
-233 -404 -461 -485 -663 -12 -30 -26 -64 -31 -75 -29 -64 -62 -192 -84 -325
-14 -91 -18 -374 -4 -425 4 -16 10 -46 13 -65 22 -143 106 -338 209 -490 168
-247 413 -450 747 -620 36 -18 81 -43 100 -54 46 -29 217 -111 283 -137 28
-11 66 -27 82 -34 17 -7 75 -29 130 -49 106 -37 142 -35 89 6 -89 70 -168 140
-241 215 -84 86 -203 233 -203 252 0 6 -4 11 -8 11 -10 0 -93 157 -123 231
-27 68 -68 204 -74 244 -16 113 -19 154 -20 265 0 111 9 219 20 253 2 7 6 28
9 48 8 54 53 193 93 287 32 76 44 91 156 201 111 108 221 207 319 286 62 50
286 228 324 257 158 121 430 332 434 337 3 4 30 26 60 51 143 116 312 285 387
385 63 83 118 191 133 260 27 121 4 268 -58 366 -104 163 -326 281 -607 323
-111 17 -368 11 -445 -9 -8 -2 -35 -7 -60 -10 -36 -5 -266 -52 -340 -70 -8 -2
-82 -19 -165 -39 -132 -31 -537 -119 -605 -131 -14 -2 -50 -9 -80 -15 -49 -10
-240 -44 -312 -55 -16 -3 -40 -7 -55 -10 -16 -2 -48 -7 -73 -10 -25 -3 -58 -7
-75 -10 -73 -12 -90 -14 -153 -21 -37 -3 -70 -8 -74 -11 -5 -2 -8 -1 -8 3 0 9
56 62 200 194 101 92 109 99 189 168 30 26 59 52 65 57 39 36 392 323 466 380
29 22 67 52 84 66 17 14 144 111 281 215 352 266 446 345 641 544 312 320 510
649 578 965 26 118 27 126 31 255 5 175 -22 326 -86 482 -28 69 -94 187 -126
227 l-19 24 -30 -28z"/>
</g>
</svg>
